<?xml version="1.0" encoding="utf-8"?>
<!-- Generator: Adobe Illustrator 16.0.0, SVG Export Plug-In . SVG Version: 6.00 Build 0)  -->
<!DOCTYPE svg PUBLIC "-//W3C//DTD SVG 1.1//EN" "http://www.w3.org/Graphics/SVG/1.1/DTD/svg11.dtd">
<svg version="1.1" id="Layer_1" xmlns="http://www.w3.org/2000/svg" xmlns:xlink="http://www.w3.org/1999/xlink" x="0px" y="0px"
	 width="495.451px" height="98.425px" viewBox="0 0 495.451 98.425" enable-background="new 0 0 495.451 98.425"
	 xml:space="preserve">
<g>
	<defs>
		<rect id="SVGID_1_" width="495.451" height="98.425"/>
	</defs>
	<clipPath id="SVGID_2_">
		<use xlink:href="#SVGID_1_"  overflow="visible"/>
	</clipPath>
	<path display="none" clip-path="url(#SVGID_2_)" fill="#231F20" d="M188.133,68.793l-11.917-47.887
		c0-0.538,0.615-0.848,1.924-0.848c1.307,0,2.229,0.848,2.613,2.537l10.377,43.972l12.067-36.359
		c0.538-1.462,1.614-2.229,3.151-2.229c1.46,0,2.459,0.766,3,2.229l11.991,36.279l10.605-43.892
		c0.384-1.689,1.152-2.537,2.459-2.537c1.153,0,1.768,0.31,1.768,0.848l-11.914,47.887c-0.23,1.076-1.229,1.617-2.997,1.617
		c-1.537,0-2.459-0.541-2.843-1.692L206.349,31.82L193.82,68.718c-0.385,1.151-1.23,1.692-2.69,1.692
		C189.363,70.411,188.364,69.87,188.133,68.793"/>
	<path display="none" clip-path="url(#SVGID_2_)" fill="#231F20" d="M252.757,21.289c0-1.691,0.845-2.531,2.613-2.531
		c1.613,0,2.459,0.84,2.459,2.531c0,1.696-0.846,2.536-2.612,2.536C253.602,23.824,252.757,22.984,252.757,21.289 M255.062,70.256
		c-1.076,0-1.613-0.614-1.613-1.768V35.204c0-1.153,0.537-1.768,1.613-1.768h0.385c1.151,0,1.69,0.615,1.69,1.768v33.285
		c0,1.153-0.539,1.768-1.69,1.768H255.062z"/>
	<path display="none" clip-path="url(#SVGID_2_)" fill="#231F20" d="M272.89,64.568c-0.384-1.153,0.538-1.769,1.229-2.001
		c1.307,1.003,3.919,2.383,5.535,3.077c2.767,1.15,5.685,1.844,8.761,1.844c5.303,0,9.456-2.687,9.456-6.993v-0.077
		c0-4.381-4.919-5.921-10.376-7.302c-6.46-1.844-13.453-3.463-13.453-9.993v-0.156c0-5.917,5.303-10.065,12.912-10.065
		c3,0,4.996,0.305,7.457,1.15c2.844,0.92,4.535,1.768,5.383,2.92c0.842,1.153,0.614,2.306-0.694,2.844
		c-3.611-2.229-8.53-3.612-12.299-3.612c-5.532,0-8.913,2.692-8.913,6.305v0.153c0,4.073,5.302,5.613,10.912,7.071
		c6.378,1.616,12.912,3.766,12.912,10.227v0.148c0,6.538-5.92,10.609-13.526,10.609c-2.847,0-5.92-0.306-8.61-1.461
		C276.886,68.256,273.505,66.793,272.89,64.568"/>
	<path display="none" clip-path="url(#SVGID_2_)" fill="#231F20" d="M349.822,50.656v0.382c0,0.615-0.155,0.997-0.385,1.076
		c-0.229,0.154-0.694,0.231-1.231,0.231H318.69v0.922c0.617,8.995,7.15,14.297,14.221,14.297h0.385h0.23
		c7.377,0,11.76-5.762,11.99-5.995c0.307,0,1.076,0.156,1.384,0.692c0.614,0.922,0.384,2.306-0.77,3.458
		c-0.845,0.849-4.844,4.842-12.067,5.074h-0.537h-0.769c-9.532,0-17.755-7.533-17.755-18.908c0-2.692,0.459-5.229,1.381-7.534
		c0.925-2.154,2.231-4.15,3.845-5.995c1.613-1.696,3.535-2.997,5.688-3.999c2.074-0.999,4.533-1.458,7.226-1.458
		c2.69,0,4.997,0.382,6.842,1.23c2.149,0.843,3.92,2.072,5.303,3.612c1.537,1.612,2.692,3.456,3.381,5.613
		C349.438,45.505,349.822,47.964,349.822,50.656 M345.978,49.193c0-1.844-0.385-3.612-1.076-5.303
		c-0.537-1.462-1.383-2.846-2.612-4.153c-1.153-1.232-2.46-2.152-3.999-2.687c-1.613-0.615-3.381-0.925-5.148-0.925
		c-1.921,0-3.612,0.311-5.226,0.925c-1.461,0.535-2.923,1.455-4.303,2.687c-1.309,1.155-2.309,2.537-3.154,4.153
		c-0.845,1.614-1.384,3.381-1.614,5.303H345.978z"/>
	<path display="none" clip-path="url(#SVGID_2_)" fill="#231F20" d="M385.858,37.204c-0.23,0-0.305,0-1.534,0.072
		c-7.689,0.615-14.758,6.46-15.145,17.761v13.452c0,0.691-0.152,1.152-0.46,1.38c-0.382,0.233-0.77,0.388-1.153,0.388h-0.385
		c-1.151,0-1.69-0.615-1.69-1.768V33.82c0-0.077,0.154-0.156,0.385-0.233c0.23-0.072,0.461-0.151,0.846-0.151
		c0.691,0,1.229,0.228,1.689,0.694c0.462,0.538,0.693,1.534,0.693,2.997v2.227c0,1.462,0.075,3.307,0.075,5.231
		c2.537-5.846,7.073-9.381,11.456-10.688C386.091,32.512,387.089,35.36,385.858,37.204"/>
	<path display="none" clip-path="url(#SVGID_2_)" fill="#00953A" d="M413.142,21.367c0.383-0.92,1.303-1.381,2.842-1.381
		c1.534,0,2.533,0.461,2.92,1.381l18.83,47.735c0.23,0.539-0.384,0.923-1.689,1.153c-1.31,0.156-2.229-0.459-2.767-1.845
		l-6.225-15.606h-22.216l-6.226,15.606c-0.538,1.386-1.46,2.001-2.689,1.845c-1.308-0.23-1.922-0.614-1.691-1.153L413.142,21.367z
		 M406.068,49.426h19.755l-9.84-25.136L406.068,49.426z"/>
	<path display="none" clip-path="url(#SVGID_2_)" fill="#00953A" d="M451.634,21.289c0-1.691,0.846-2.531,2.614-2.531
		c1.614,0,2.459,0.84,2.459,2.531c0,1.696-0.845,2.536-2.613,2.536C452.479,23.824,451.634,22.984,451.634,21.289 M453.94,70.256
		c-1.075,0-1.614-0.614-1.614-1.768V35.204c0-1.153,0.539-1.768,1.614-1.768h0.384c1.152,0,1.691,0.615,1.691,1.768v33.285
		c0,1.153-0.539,1.768-1.691,1.768H453.94z"/>
	<path display="none" clip-path="url(#SVGID_2_)" fill="#00953A" d="M494.981,37.204c-0.233,0-0.311,0-1.541,0.072
		c-7.684,0.615-14.756,6.46-15.14,17.761v13.452c0,0.691-0.154,1.152-0.462,1.38c-0.384,0.233-0.769,0.388-1.152,0.388h-0.385
		c-1.152,0-1.689-0.615-1.689-1.768V33.82c0-0.077,0.152-0.156,0.381-0.233c0.233-0.072,0.464-0.151,0.848-0.151
		c0.694,0,1.229,0.228,1.691,0.694c0.461,0.538,0.691,1.534,0.691,2.997v2.227c0,1.462,0.077,3.307,0.077,5.231
		c2.537-5.846,7.071-9.381,11.451-10.688C495.212,32.512,496.211,35.36,494.981,37.204"/>
	<path clip-path="url(#SVGID_2_)" fill="#242424" d="M141.239,41.471L102.964,3.193c-4.256-4.256-11.224-4.256-15.48,0
		l-15.268,15.27l23.009,23.008c4.256,4.257,4.256,11.226,0,15.482L72.216,79.964l15.268,15.267c4.256,4.26,11.224,4.26,15.48,0
		l38.275-38.278C145.498,52.696,145.498,45.728,141.239,41.471"/>
	<path clip-path="url(#SVGID_2_)" fill="#00A54F" d="M49.208,41.471l23.007-23.008L56.95,3.193c-4.259-4.256-11.225-4.256-15.484,0
		L3.194,41.471c-4.259,4.257-4.259,11.226,0,15.482l38.272,38.278c4.259,4.26,11.225,4.26,15.484,0l15.266-15.267L49.208,56.953
		C44.952,52.696,44.952,45.728,49.208,41.471"/>
	<path clip-path="url(#SVGID_2_)" fill="none" d="M98.184,53.729L72.217,79.962c0,0-2.275-2.295-4.732-4.752L45.382,53.106
		c-2.456-2.457-2.456-6.48,0-8.94L72.217,18.46l25.967,26.328C100.643,47.248,100.643,51.27,98.184,53.729"/>
</g>
<g>
	<path fill="#232323" d="M190.019,69.757L178.705,24.28c-0.073-0.511,3.431-2.189,4.307,1.606l9.854,41.755l11.461-34.528
		c0.438-1.314,1.095-2.117,2.993-2.117c1.897,0,2.336,0.73,2.847,2.117l11.388,34.455l10.074-41.682
		c0.803-3.796,4.088-2.117,4.015-1.606l-11.315,45.478c-0.219,1.168-0.876,1.533-2.847,1.533c-1.825,0-2.336-0.511-2.701-1.605
		l-11.46-35.039l-11.899,35.039c-0.365,1.095-0.73,1.605-2.555,1.605C190.895,71.291,190.238,70.925,190.019,69.757z"/>
	<path fill="#232323" d="M247.397,24.645c0-1.606,0.803-2.409,2.483-2.409c1.605,0,2.336,0.803,2.336,2.409
		s-0.804,2.409-2.482,2.409C248.2,27.054,247.397,26.251,247.397,24.645z M248.054,69.466V37.858c0-1.314,0.584-1.679,1.533-1.679
		h0.365c0.949,0,1.605,0.365,1.605,1.679v31.608c0,1.313-0.656,1.679-1.605,1.679h-0.365
		C248.638,71.145,248.054,70.78,248.054,69.466z"/>
	<path fill="#232323" d="M265.573,67.641c-1.24-1.241-1.68-2.117-1.68-2.847c0-1.461,1.752-1.972,1.898-1.898
		c2.117,3.285,5.986,5.84,12.191,5.84c6.277,0,9.928-2.847,9.928-6.716c0-4.672-4.307-5.621-10.73-7.008
		c-5.621-1.168-12.264-2.555-12.264-9.344c0-5.913,5.182-10.001,12.92-10.001c5.402,0,9.125,1.752,11.168,3.796
		c0.805,0.803,1.314,1.825,1.314,2.555c0,1.387-1.752,2.044-1.898,1.825c-1.752-2.993-5.693-5.256-10.584-5.256
		c-5.986,0-9.562,2.774-9.562,6.57c0,4.38,4.088,5.401,10.365,6.789c5.914,1.241,12.701,2.701,12.701,9.563
		c0,5.985-5.182,10.146-13.504,10.146C271.706,71.656,267.69,69.757,265.573,67.641z"/>
	<path fill="#232323" d="M319.153,68.589c7.229,0,10.586-3.576,12.338-7.007c0.219-0.146,2.043,0.365,2.043,2.044
		c0,0.729-0.656,2.189-2.189,3.723c-2.117,2.117-6.424,4.307-12.191,4.307c-10.584,0-17.664-7.519-17.664-17.885
		c0-10.292,7.299-18.104,17.227-18.104c9.49,0,15.842,6.789,15.842,16.863v0.365c0,1.022-0.439,1.241-1.533,1.241h-28.105
		C305.065,62.604,310.905,68.589,319.153,68.589z M330.907,51.143c-0.293-7.373-5.109-12.409-12.191-12.409
		c-7.154,0-12.555,5.183-13.578,12.409H330.907z"/>
	<path fill="#232323" d="M360.983,35.667c1.678,0,2.48,1.46,1.971,2.701c-7.885,0.73-12.557,6.935-12.557,13.942v17.155
		c0,1.24-0.656,1.679-1.533,1.679h-0.365c-0.947,0-1.605-0.438-1.605-1.679V36.543c0-0.073,0.512-0.365,1.168-0.365
		c1.242,0,2.264,0.657,2.264,3.504v5.329C351.858,40.194,356.749,35.667,360.983,35.667z"/>
	<path fill="#00A54F" d="M389.599,24.718c0.365-0.876,1.021-1.314,2.701-1.314c1.752,0,2.408,0.438,2.773,1.314l17.885,45.332
		c0.219,0.584-3.139,2.408-4.234-0.657l-5.912-14.819h-21.098l-5.912,14.819c-1.242,3.139-4.307,1.168-4.162,0.657L389.599,24.718z
		 M401.644,51.362L392.3,27.492l-9.418,23.871H401.644z"/>
	<path fill="#00A54F" d="M423.616,24.645c0-1.606,0.803-2.409,2.48-2.409c1.607,0,2.336,0.803,2.336,2.409s-0.803,2.409-2.48,2.409
		C424.419,27.054,423.616,26.251,423.616,24.645z M424.272,69.466V37.858c0-1.314,0.584-1.679,1.533-1.679h0.365
		c0.949,0,1.605,0.365,1.605,1.679v31.608c0,1.313-0.656,1.679-1.605,1.679h-0.365C424.856,71.145,424.272,70.78,424.272,69.466z"/>
	<path fill="#00A54F" d="M456.976,35.667c1.68,0,2.482,1.46,1.971,2.701c-7.883,0.73-12.555,6.935-12.555,13.942v17.155
		c0,1.24-0.658,1.679-1.533,1.679h-0.365c-0.949,0-1.605-0.438-1.605-1.679V36.543c0-0.073,0.51-0.365,1.168-0.365
		c1.24,0,2.262,0.657,2.262,3.504v5.329C447.851,40.194,452.741,35.667,456.976,35.667z"/>
</g>
</svg>
